<svg width="500" height="500" viewBox="0 0 500 500" fill="none" xmlns="http://www.w3.org/2000/svg">
<circle cx="233.379" cy="250" r="198.582" fill="url(#paint0_linear_305_2)"/>
<circle cx="233.379" cy="250" r="198.582" fill="#320400" fill-opacity="0.12"/>
<circle cx="233.379" cy="250" r="198.582" stroke="#320400" stroke-width="9"/>
<path d="M279.733 202.675C256.838 211.574 234.507 219.517 215.664 225.414C177.375 237.403 72.6126 269.86 9.32849 310.773L14.6267 312.834C53.1858 291.052 78.2493 284.209 102.341 276.629C128.538 268.388 213.226 248.569 251.574 237.776C264.53 234.131 279.704 229.358 295.775 223.549L299.567 222.166C331.798 210.294 367.163 194.36 395.224 175.076C381.856 187.742 337.66 220.773 310.713 239.184L307.706 241.23C302.162 244.973 297.516 247.96 294.264 249.844C275.426 260.735 183.585 323.43 162.692 337.853C141.798 352.276 83.8075 407.024 66.7355 422.919L66.1468 429.389C121.189 379.94 138.457 367.744 160.337 351.099C187.417 330.495 243.435 292.377 262.475 280.162C280.675 268.486 297.09 257.747 311.822 247.921L314.745 245.959C355.571 218.639 383.043 198.53 399.051 185.083C421.126 166.54 471.459 125.037 490.592 69.406C457.031 112.091 417.354 136.517 393.747 150.356C366.933 166.074 324.67 185.044 283.667 201.14L279.733 202.675Z" fill="#FC3D21"/>
<path d="M212.871 407.222C188.303 407.222 166.843 404.41 148.491 398.786C130.139 393.162 115.931 385.318 105.867 375.254C96.0988 364.894 91.2148 352.758 91.2148 338.846C91.2148 323.454 96.0988 311.762 105.867 303.77C115.635 295.482 129.843 291.338 148.491 291.338C147.899 297.258 147.603 301.402 147.603 303.77C147.603 322.122 153.523 336.034 165.363 345.506C177.499 354.978 195.111 359.714 218.199 359.714C240.991 359.714 259.047 355.422 272.367 346.838C285.687 337.958 292.347 325.97 292.347 310.874C292.347 301.402 287.463 293.706 277.695 287.786C268.223 281.866 250.463 275.798 224.415 269.582C189.487 261.294 163.883 250.638 147.603 237.614C131.619 224.59 123.627 208.014 123.627 187.886C123.627 167.758 129.103 150.294 140.055 135.494C151.007 120.398 166.547 108.854 186.675 100.862C206.803 92.5738 230.335 88.4298 257.271 88.4298C278.583 88.4298 297.527 91.0938 314.103 96.4218C330.679 101.75 343.555 109.298 352.731 119.066C362.203 128.538 366.939 139.342 366.939 151.478C366.939 165.39 362.351 176.046 353.175 183.446C343.999 190.846 330.531 194.694 312.771 194.99C313.067 192.918 313.215 190.106 313.215 186.554C313.215 168.794 308.331 155.918 298.563 147.926C288.795 139.934 273.403 135.938 252.387 135.938C230.779 135.938 213.759 139.934 201.327 147.926C189.191 155.918 183.123 167.018 183.123 181.226C183.123 190.698 187.563 198.246 196.443 203.87C205.323 209.494 221.307 214.97 244.395 220.298C281.691 228.882 308.775 239.834 325.647 253.154C342.815 266.474 351.399 283.346 351.399 303.77C351.399 324.786 345.775 343.138 334.527 358.826C323.279 374.218 307.147 386.206 286.131 394.79C265.411 403.078 240.991 407.222 212.871 407.222Z" fill="white"/>
<path d="M148.491 398.786L149.809 394.483L149.809 394.483L148.491 398.786ZM105.867 375.254L102.593 378.341L102.638 378.389L102.685 378.436L105.867 375.254ZM105.867 303.77L108.716 307.253L108.747 307.227L108.778 307.201L105.867 303.77ZM148.491 291.338L152.968 291.786L153.463 286.838H148.491V291.338ZM165.363 345.506L162.552 349.02L162.573 349.037L162.594 349.053L165.363 345.506ZM272.367 346.838L274.804 350.62L274.834 350.601L274.863 350.582L272.367 346.838ZM277.695 287.786L275.31 291.602L275.336 291.618L275.362 291.634L277.695 287.786ZM224.415 269.582L225.459 265.205L225.454 265.203L224.415 269.582ZM147.603 237.614L144.76 241.102L144.776 241.115L144.792 241.128L147.603 237.614ZM140.055 135.494L143.672 138.171L143.685 138.154L143.697 138.136L140.055 135.494ZM186.675 100.862L188.335 105.044L188.362 105.034L188.388 105.023L186.675 100.862ZM314.103 96.4218L312.726 100.706L314.103 96.4218ZM352.731 119.066L349.451 122.147L349.499 122.198L349.549 122.248L352.731 119.066ZM353.175 183.446L356 186.949L353.175 183.446ZM312.771 194.99L308.316 194.353L307.57 199.577L312.846 199.489L312.771 194.99ZM298.563 147.926L295.713 151.409L295.713 151.409L298.563 147.926ZM201.327 147.926L198.893 144.141L198.873 144.154L198.852 144.168L201.327 147.926ZM196.443 203.87L198.851 200.068L198.851 200.068L196.443 203.87ZM244.395 220.298L243.383 224.683L243.385 224.683L244.395 220.298ZM325.647 253.154L322.858 256.686L322.873 256.698L322.888 256.709L325.647 253.154ZM334.527 358.826L338.16 361.481L338.172 361.464L338.184 361.448L334.527 358.826ZM286.131 394.79L287.802 398.968L287.817 398.962L287.832 398.956L286.131 394.79ZM212.871 402.722C188.631 402.722 167.634 399.946 149.809 394.483L147.172 403.088C166.052 408.874 187.974 411.722 212.871 411.722V402.722ZM149.809 394.483C131.926 389.003 118.443 381.466 109.049 372.072L102.685 378.436C113.419 389.17 128.351 397.321 147.172 403.088L149.809 394.483ZM109.141 372.167C100.14 362.62 95.7148 351.581 95.7148 338.846H86.7148C86.7148 353.935 92.0578 367.168 102.593 378.341L109.141 372.167ZM95.7148 338.846C95.7148 324.477 100.222 314.203 108.716 307.253L103.017 300.287C91.9759 309.321 86.7148 322.43 86.7148 338.846H95.7148ZM108.778 307.201C117.432 299.858 130.435 295.838 148.491 295.838V286.838C129.251 286.838 113.837 291.106 102.955 300.339L108.778 307.201ZM144.013 290.89C143.422 296.803 143.103 301.151 143.103 303.77H152.103C152.103 301.653 152.376 297.713 152.968 291.786L144.013 290.89ZM143.103 303.77C143.103 323.17 149.418 338.513 162.552 349.02L168.174 341.992C157.628 333.555 152.103 321.073 152.103 303.77H143.103ZM162.594 349.053C175.83 359.384 194.586 364.214 218.199 364.214V355.214C195.635 355.214 179.168 350.572 168.132 341.958L162.594 349.053ZM218.199 364.214C241.495 364.214 260.505 359.836 274.804 350.62L269.929 343.055C257.589 351.008 240.486 355.214 218.199 355.214V364.214ZM274.863 350.582C289.345 340.928 296.847 327.58 296.847 310.874H287.847C287.847 324.36 282.029 334.988 269.871 343.094L274.863 350.582ZM296.847 310.874C296.847 299.484 290.817 290.477 280.027 283.937L275.362 291.634C284.108 296.935 287.847 303.32 287.847 310.874H296.847ZM280.08 283.97C269.919 277.62 251.503 271.42 225.459 265.205L223.37 273.959C249.423 280.176 266.526 286.112 275.31 291.602L280.08 283.97ZM225.454 265.203C190.77 256.973 165.927 246.51 150.414 234.1L144.792 241.128C161.839 254.765 188.203 265.614 223.376 273.96L225.454 265.203ZM150.445 234.125C135.48 221.932 128.127 206.623 128.127 187.886H119.127C119.127 209.404 127.757 227.248 144.76 241.102L150.445 234.125ZM128.127 187.886C128.127 168.627 133.347 152.123 143.672 138.171L136.437 132.817C124.858 148.465 119.127 166.889 119.127 187.886H128.127ZM143.697 138.136C154.072 123.837 168.87 112.773 188.335 105.044L185.014 96.6794C164.223 104.935 147.942 116.959 136.412 132.851L143.697 138.136ZM188.388 105.023C207.86 97.0049 230.787 92.9298 257.271 92.9298V83.9298C229.882 83.9298 205.745 88.1427 184.961 96.7008L188.388 105.023ZM257.271 92.9298C278.216 92.9298 296.681 95.5488 312.726 100.706L315.48 92.1377C298.372 86.6388 278.95 83.9298 257.271 83.9298V92.9298ZM312.726 100.706C328.787 105.868 340.93 113.076 349.451 122.147L356.011 115.985C346.179 105.519 332.571 97.6312 315.48 92.1377L312.726 100.706ZM349.549 122.248C358.273 130.972 362.439 140.665 362.439 151.478H371.439C371.439 138.019 366.133 126.104 355.913 115.884L349.549 122.248ZM362.439 151.478C362.439 164.302 358.271 173.555 350.35 179.943L356 186.949C366.431 178.536 371.439 166.477 371.439 151.478H362.439ZM350.35 179.943C342.262 186.466 329.938 190.203 312.696 190.49L312.846 199.489C331.124 199.185 345.736 195.226 356 186.949L350.35 179.943ZM317.226 195.626C317.565 193.248 317.715 190.194 317.715 186.554H308.715C308.715 190.018 308.568 192.587 308.316 194.353L317.226 195.626ZM317.715 186.554C317.715 168.019 312.601 153.597 301.412 144.443L295.713 151.409C304.061 158.238 308.715 169.568 308.715 186.554H317.715ZM301.412 144.443C290.457 135.48 273.806 131.438 252.387 131.438V140.438C273 140.438 287.132 144.388 295.713 151.409L301.412 144.443ZM252.387 131.438C230.292 131.438 212.314 135.513 198.893 144.141L203.76 151.711C215.204 144.354 231.265 140.438 252.387 140.438V131.438ZM198.852 144.168C185.486 152.969 178.623 165.463 178.623 181.226H187.623C187.623 168.572 192.895 158.866 203.802 151.684L198.852 144.168ZM178.623 181.226C178.623 192.431 184.022 201.33 194.035 207.672L198.851 200.068C191.103 195.162 187.623 188.965 187.623 181.226H178.623ZM194.035 207.672C203.616 213.74 220.264 219.347 243.383 224.683L245.407 215.913C222.35 210.592 207.029 205.248 198.851 200.068L194.035 207.672ZM243.385 224.683C280.463 233.217 306.77 243.985 322.858 256.686L328.435 249.622C310.779 235.683 282.919 224.547 245.404 215.912L243.385 224.683ZM322.888 256.709C339.039 269.24 346.899 284.836 346.899 303.77H355.899C355.899 281.856 346.591 263.708 328.405 249.598L322.888 256.709ZM346.899 303.77C346.899 323.933 341.52 341.349 330.87 356.204L338.184 361.448C350.029 344.927 355.899 325.639 355.899 303.77H346.899ZM330.894 356.171C320.224 370.771 304.822 382.294 284.429 390.624L287.832 398.956C309.471 390.117 326.334 377.664 338.16 361.481L330.894 356.171ZM284.46 390.612C264.39 398.64 240.561 402.722 212.871 402.722V411.722C241.42 411.722 266.432 407.516 287.802 398.968L284.46 390.612Z" fill="#3A0000"/>
<path d="M307.706 241.23C302.162 244.973 297.516 247.96 294.264 249.844C275.426 260.735 183.585 323.43 162.692 337.853C141.798 352.276 83.8075 407.024 66.7355 422.919L66.1469 429.389C121.189 379.94 138.458 367.744 160.337 351.099C187.417 330.495 243.435 292.377 262.475 280.162C280.675 268.486 297.09 257.747 311.822 247.921L314.745 245.959C355.571 218.639 383.043 198.53 399.051 185.083C417.777 169.353 456.838 137.101 479.938 93.7178L395.224 175.076C381.856 187.742 337.66 220.773 310.713 239.184L307.706 241.23Z" fill="#FC3D21"/>
<defs>
<linearGradient id="paint0_linear_305_2" x1="30.2972" y1="46.918" x2="436.461" y2="453.082" gradientUnits="userSpaceOnUse">
<stop offset="0.164514" stop-color="#FF0000"/>
<stop offset="0.246047" stop-color="#FF8000"/>
<stop offset="0.35217" stop-color="#FFFF00"/>
<stop offset="0.458293" stop-color="#00FF00"/>
<stop offset="0.563967" stop-color="#00FFFF"/>
<stop offset="0.708069" stop-color="#0000FF"/>
<stop offset="0.843957" stop-color="#FF00FF"/>
</linearGradient>
</defs>
</svg>
