<svg width="500" height="500" viewBox="0 0 500 500" fill="none" xmlns="http://www.w3.org/2000/svg">
<path d="M125.468 165.185C138.185 165.196 161.996 215.146 162.762 226.226C163.529 237.306 154.384 246.719 164.111 276.503C173.839 306.287 223.879 337.735 227.133 342.111C230.387 346.486 229.754 350.48 235.742 356.642C241.73 362.803 247.669 364.432 258.861 365.766C270.053 367.1 280.745 364.629 286.275 364.942C291.804 365.255 298.142 370.736 303.377 371.488C308.612 372.241 318.82 371.076 320.342 371.702C321.865 372.328 328.612 385.378 335.084 387.031C341.556 388.683 359.995 381.066 359.995 381.066C359.995 381.066 357.913 389.95 358.379 402.058C358.411 402.881 358.445 403.85 358.479 404.94C381.915 388.501 401.451 366.88 415.423 341.741C414.392 341.738 413.504 341.786 412.774 341.89C397.222 344.107 386.314 349.304 380.75 352.375C378.179 353.793 376.225 355.65 373.997 357.767C371.403 360.232 368.439 363.049 363.701 365.934C354.893 371.297 340.786 376.526 338.291 373.508C336.891 371.814 340.523 368.012 343.832 364.548C346.418 361.84 348.806 359.339 348.438 358.215C347.601 355.652 315.539 332.067 312.775 332.372C310.01 332.677 301.729 336.416 300.548 338.564C300.029 339.508 299.675 341.566 299.312 343.682C298.848 346.379 298.368 349.169 297.51 349.871C295.978 351.123 272.819 358.857 266.864 334.64C260.909 310.423 262.678 302.47 279.435 299.768C286.981 298.551 290.849 296.411 294.122 294.6C298.116 292.391 301.224 290.672 309.046 291.72C311.929 292.106 315.781 295.692 319.731 299.368C325.195 304.454 330.846 309.715 334.378 306.921C339.263 303.056 335.824 298.925 332.371 294.776C331.523 293.757 330.675 292.737 329.948 291.72C326.262 286.56 325.641 281.966 326.528 275.505C326.878 272.952 328.219 269.721 329.696 266.16C331.956 260.712 334.536 254.492 334.378 248.752C334.195 242.118 333.293 237.433 332.545 233.543C332.222 231.866 331.928 230.337 331.732 228.863C331.334 225.866 332.493 225.155 333.832 224.335C334.679 223.815 335.599 223.251 336.241 222.035L336.302 220.085C335.962 217.376 334.816 212.752 336.647 209.094C338.745 204.904 341.559 205.684 343.759 206.294C344.299 206.444 344.803 206.583 345.25 206.636C347.514 206.905 354.2 192.047 353.724 189.284C353.562 188.345 351.119 188.963 348.041 189.741C342.057 191.255 333.671 193.375 334.972 185.851C336.084 179.422 338.215 175.745 339.751 173.092C340.938 171.043 341.771 169.605 341.508 167.982C340.903 164.258 325.305 161.071 325.305 161.071C325.305 161.071 312.105 149.113 307.353 148.953C302.6 148.793 297.671 156.267 297.671 156.267C297.671 156.267 285.752 147.488 281.283 147.106C276.814 146.725 272.622 149.56 272.522 152.101C272.475 153.295 275.456 158.225 278.822 163.793C282.621 170.074 286.909 177.166 287.89 180.615C289.267 185.461 241.438 174.781 239.648 169.581C238.794 167.098 242.206 161.061 245.662 154.944C249.444 148.252 253.279 141.465 251.64 139.135C248.501 134.674 234.164 132.617 221.846 134.402C215.933 135.259 210.84 138.085 205.751 140.909C200.24 143.967 194.732 147.024 188.19 147.575C172.606 148.889 150.676 143.172 132.057 138.318C119.655 135.085 108.722 132.235 102.112 132.101C95.6399 140.209 89.8203 148.861 84.7332 157.978C92.6016 162.973 112.088 156.862 103.045 168.168C103.045 168.168 112.751 165.173 125.468 165.185Z" fill="white" fill-opacity="0.7"/>
<path d="M162.762 226.226C161.996 215.146 138.185 165.196 125.468 165.185C112.751 165.173 103.045 168.168 103.045 168.168C112.088 156.862 92.6016 162.973 84.7332 157.978C69.5353 185.214 60.875 216.596 60.875 250C60.875 354.451 145.549 439.125 250 439.125C290.361 439.125 327.769 426.482 358.479 404.94C358.445 403.85 358.411 402.881 358.379 402.058C357.913 389.95 359.995 381.066 359.995 381.066C359.995 381.066 341.556 388.683 335.084 387.031C328.612 385.378 321.865 372.328 320.342 371.702C318.82 371.076 308.612 372.241 303.377 371.488C298.142 370.736 291.804 365.255 286.275 364.942C280.745 364.629 270.053 367.1 258.861 365.766C247.669 364.432 241.73 362.803 235.742 356.642C229.754 350.48 230.387 346.486 227.133 342.111C223.879 337.735 173.839 306.287 164.111 276.503C154.384 246.719 163.529 237.306 162.762 226.226Z" fill="#5A5A5A" fill-opacity="0.7"/>
<path fill-rule="evenodd" clip-rule="evenodd" d="M412.774 341.89C397.222 344.107 386.314 349.304 380.75 352.375C378.179 353.793 376.225 355.65 373.997 357.767C371.403 360.232 368.439 363.049 363.701 365.934C354.893 371.297 340.786 376.526 338.291 373.508C336.891 371.814 340.523 368.012 343.832 364.548C346.418 361.84 348.806 359.339 348.438 358.215C347.601 355.652 315.539 332.067 312.775 332.372C310.01 332.677 301.729 336.416 300.548 338.564C300.029 339.508 299.675 341.566 299.312 343.682C298.848 346.379 298.368 349.169 297.51 349.871C295.978 351.123 272.819 358.857 266.864 334.64C260.909 310.423 262.678 302.47 279.435 299.768C286.981 298.551 290.849 296.411 294.122 294.6C298.116 292.391 301.224 290.672 309.046 291.72C311.929 292.106 315.781 295.692 319.731 299.368C325.195 304.454 330.846 309.715 334.378 306.921C339.263 303.056 335.824 298.925 332.371 294.776C331.523 293.757 330.675 292.737 329.948 291.72C326.262 286.56 325.641 281.966 326.528 275.505C326.878 272.952 328.219 269.721 329.696 266.16C331.956 260.712 334.536 254.492 334.378 248.752C334.195 242.118 333.293 237.433 332.545 233.543C332.222 231.866 331.928 230.337 331.732 228.863C331.334 225.866 332.493 225.155 333.832 224.335C334.679 223.815 335.599 223.251 336.241 222.035C336.438 221.661 336.414 220.977 336.302 220.085L336.647 209.094C338.745 204.904 341.559 205.684 343.759 206.294C344.299 206.444 344.803 206.583 345.25 206.636C347.514 206.905 354.2 192.047 353.724 189.284C353.562 188.345 351.119 188.963 348.041 189.741C342.057 191.255 333.671 193.375 334.972 185.851C336.084 179.422 338.215 175.745 339.751 173.092C340.938 171.043 341.771 169.605 341.508 167.982C340.903 164.258 325.305 161.071 325.305 161.071C325.305 161.071 312.105 149.113 307.353 148.953C302.6 148.793 297.671 156.267 297.671 156.267C297.671 156.267 285.752 147.488 281.283 147.106C276.814 146.725 272.622 149.56 272.522 152.101C272.475 153.295 275.456 158.225 278.822 163.793C282.621 170.074 286.909 177.166 287.89 180.615C289.267 185.461 241.438 174.781 239.648 169.581C238.794 167.098 242.206 161.061 245.662 154.944C249.444 148.252 253.279 141.465 251.64 139.135C248.501 134.674 234.164 132.617 221.846 134.402C215.933 135.259 210.84 138.085 205.751 140.909C200.24 143.967 194.732 147.024 188.19 147.575C172.606 148.889 150.676 143.172 132.057 138.318C119.655 135.085 108.722 132.235 102.112 132.101C124.028 104.647 153.429 83.4302 187.225 71.5424C187.225 71.5424 190.953 95.5171 250 95.5171C309.046 95.5171 312.775 71.5424 312.775 71.5424C386.37 97.4297 439.125 167.554 439.125 250C439.125 283.289 430.524 314.57 415.423 341.741C414.392 341.738 413.504 341.786 412.774 341.89Z" fill="#5A5A5A" fill-opacity="0.7"/>
<path d="M312.775 71.5424C293.132 64.6331 272.005 60.875 250 60.875C227.995 60.875 206.868 64.6331 187.225 71.5424C187.225 71.5424 190.953 95.5171 250 95.5171C309.046 95.5171 312.775 71.5424 312.775 71.5424Z" fill="white" fill-opacity="0.7"/>
<path d="M336.241 222.035C336.438 221.661 336.414 220.977 336.302 220.085M336.241 222.035L336.302 220.085M336.241 222.035C335.599 223.251 334.679 223.815 333.832 224.335C332.493 225.155 331.334 225.866 331.732 228.863C331.928 230.337 332.222 231.866 332.545 233.543C333.293 237.433 334.195 242.118 334.378 248.752C334.536 254.492 331.956 260.712 329.696 266.16C328.219 269.721 326.878 272.952 326.528 275.505C325.641 281.966 326.262 286.56 329.948 291.72C330.675 292.737 331.523 293.757 332.371 294.776C335.824 298.925 339.263 303.056 334.378 306.921C330.846 309.715 325.195 304.454 319.731 299.368C315.781 295.692 311.929 292.106 309.046 291.72C301.224 290.672 298.116 292.391 294.122 294.6C290.849 296.411 286.981 298.551 279.435 299.768C262.678 302.47 260.909 310.423 266.864 334.64C272.819 358.857 295.978 351.123 297.51 349.871C298.368 349.169 298.848 346.379 299.312 343.682C299.675 341.566 300.029 339.508 300.548 338.564C301.729 336.416 310.01 332.677 312.775 332.372C315.539 332.067 347.601 355.652 348.438 358.215C348.806 359.339 346.418 361.84 343.832 364.548C340.523 368.012 336.891 371.814 338.291 373.508C340.786 376.526 354.893 371.297 363.701 365.934C368.439 363.049 371.403 360.232 373.997 357.767C376.225 355.65 378.179 353.793 380.75 352.375C386.314 349.304 397.222 344.107 412.774 341.89C413.504 341.786 414.392 341.738 415.423 341.741M336.302 220.085C335.962 217.376 334.816 212.752 336.647 209.094M336.302 220.085L336.647 209.094M336.647 209.094C338.745 204.904 341.559 205.684 343.759 206.294C344.299 206.444 344.803 206.583 345.25 206.636C347.514 206.905 354.2 192.047 353.724 189.284C353.562 188.345 351.119 188.963 348.041 189.741C342.057 191.255 333.671 193.375 334.972 185.851C336.084 179.422 338.215 175.745 339.751 173.092C340.938 171.043 341.771 169.605 341.508 167.982C340.903 164.258 325.305 161.071 325.305 161.071C325.305 161.071 312.105 149.113 307.353 148.953C302.6 148.793 297.671 156.267 297.671 156.267C297.671 156.267 285.752 147.488 281.283 147.106C276.814 146.725 272.622 149.56 272.522 152.101C272.475 153.295 275.456 158.225 278.822 163.793C282.621 170.074 286.909 177.166 287.89 180.615C289.267 185.461 241.438 174.781 239.648 169.581C238.794 167.098 242.206 161.061 245.662 154.944C249.444 148.252 253.279 141.465 251.64 139.135C248.501 134.674 234.164 132.617 221.846 134.402C215.933 135.259 210.84 138.085 205.751 140.909C200.24 143.967 194.732 147.024 188.19 147.575C172.606 148.889 150.676 143.172 132.057 138.318C119.655 135.085 108.722 132.235 102.112 132.101M84.7332 157.978C69.5353 185.214 60.875 216.596 60.875 250C60.875 354.451 145.549 439.125 250 439.125C290.361 439.125 327.769 426.482 358.479 404.94M84.7332 157.978C92.6016 162.973 112.088 156.862 103.045 168.168C103.045 168.168 112.751 165.173 125.468 165.185C138.185 165.196 161.996 215.146 162.762 226.226C163.529 237.306 154.384 246.719 164.111 276.503C173.839 306.287 223.879 337.735 227.133 342.111C230.387 346.486 229.754 350.48 235.742 356.642C241.73 362.803 247.669 364.432 258.861 365.766C270.053 367.1 280.745 364.629 286.275 364.942C291.804 365.255 298.142 370.736 303.377 371.488C308.612 372.241 318.82 371.076 320.342 371.702C321.865 372.328 328.612 385.378 335.084 387.031C341.556 388.683 359.995 381.066 359.995 381.066C359.995 381.066 357.913 389.95 358.379 402.058C358.411 402.881 358.445 403.85 358.479 404.94M84.7332 157.978C89.8203 148.861 95.6399 140.209 102.112 132.101M102.112 132.101C124.028 104.647 153.429 83.4302 187.225 71.5424M415.423 341.741C430.524 314.57 439.125 283.289 439.125 250C439.125 167.554 386.37 97.4297 312.775 71.5424M415.423 341.741C401.451 366.88 381.915 388.501 358.479 404.94M312.775 71.5424C293.132 64.6331 272.005 60.875 250 60.875C227.995 60.875 206.868 64.6331 187.225 71.5424M312.775 71.5424C312.775 71.5424 309.046 95.5171 250 95.5171C190.953 95.5171 187.225 71.5424 187.225 71.5424" stroke="#1F1F1F" stroke-width="12"/>
</svg>
