<svg width="392" height="392" viewBox="0 0 392 392" fill="none" xmlns="http://www.w3.org/2000/svg">
<path d="M71.4678 111.185C84.1847 111.196 107.996 161.146 108.762 172.226C109.529 183.306 100.384 192.719 110.111 222.503C119.839 252.287 169.879 283.735 173.133 288.111C176.387 292.486 175.754 296.48 181.742 302.642C187.73 308.803 193.669 310.432 204.861 311.766C216.053 313.1 226.745 310.629 232.275 310.942C237.804 311.255 244.142 316.736 249.377 317.488C254.612 318.241 264.82 317.076 266.342 317.702C267.865 318.328 274.612 331.378 281.084 333.031C287.556 334.683 305.995 327.066 305.995 327.066C305.995 327.066 303.913 335.95 304.379 348.058C304.411 348.881 304.445 349.85 304.479 350.94C327.915 334.501 347.451 312.88 361.423 287.741C360.392 287.738 359.504 287.786 358.774 287.89C343.222 290.107 332.314 295.304 326.75 298.375C324.179 299.793 322.225 301.65 319.997 303.767C317.403 306.232 314.439 309.049 309.701 311.934C300.893 317.297 286.786 322.526 284.291 319.508C282.891 317.814 286.523 314.012 289.832 310.548C292.418 307.84 294.806 305.339 294.438 304.215C293.601 301.652 261.539 278.067 258.775 278.372C256.01 278.677 247.729 282.416 246.548 284.564C246.029 285.508 245.675 287.566 245.312 289.682C244.848 292.379 244.368 295.169 243.51 295.871C241.978 297.123 218.819 304.857 212.864 280.64C206.909 256.423 208.678 248.47 225.435 245.768C232.981 244.551 236.849 242.411 240.122 240.6C244.116 238.391 247.224 236.672 255.046 237.72C257.929 238.106 261.781 241.692 265.731 245.368C271.195 250.454 276.846 255.715 280.378 252.921C285.263 249.056 281.824 244.925 278.371 240.776C277.523 239.757 276.675 238.737 275.948 237.72C272.262 232.56 271.641 227.966 272.528 221.505C272.878 218.952 274.219 215.721 275.696 212.16C277.956 206.712 280.536 200.492 280.378 194.752C280.195 188.118 279.293 183.433 278.545 179.543C278.222 177.866 277.928 176.337 277.732 174.863C277.334 171.866 278.493 171.155 279.832 170.335C280.679 169.815 281.599 169.251 282.241 168.035L282.302 166.085C281.962 163.376 280.816 158.752 282.647 155.094C284.745 150.904 287.559 151.684 289.759 152.294C290.299 152.444 290.803 152.583 291.25 152.636C293.514 152.905 300.2 138.047 299.724 135.284C299.562 134.345 297.119 134.963 294.041 135.741C288.057 137.255 279.671 139.375 280.972 131.851C282.084 125.422 284.215 121.745 285.751 119.092C286.938 117.043 287.771 115.605 287.508 113.982C286.903 110.258 271.305 107.071 271.305 107.071C271.305 107.071 258.105 95.1128 253.353 94.9527C248.6 94.7926 243.671 102.267 243.671 102.267C243.671 102.267 231.752 93.4877 227.283 93.1065C222.814 92.7252 218.622 95.5602 218.522 98.101C218.475 99.2949 221.456 104.225 224.822 109.793C228.621 116.074 232.909 123.166 233.89 126.615C235.267 131.461 187.438 120.781 185.648 115.581C184.794 113.098 188.206 107.061 191.662 100.944C195.444 94.252 199.279 87.4653 197.64 85.1348C194.501 80.674 180.164 78.6166 167.846 80.4019C161.933 81.259 156.84 84.0849 151.751 86.9091C146.24 89.9674 140.732 93.0236 134.19 93.5751C118.606 94.8887 96.6759 89.1719 78.0571 84.3182C65.6553 81.0852 54.7225 78.2352 48.1123 78.1008C41.6399 86.2089 35.8203 94.8611 30.7332 103.978C38.6016 108.973 58.0883 102.862 49.045 114.168C49.045 114.168 58.7509 111.173 71.4678 111.185Z" fill="white" fill-opacity="0.7"/>
<path d="M108.762 172.226C107.996 161.146 84.1847 111.196 71.4678 111.185C58.7509 111.173 49.045 114.168 49.045 114.168C58.0883 102.862 38.6016 108.973 30.7332 103.978C15.5353 131.214 6.875 162.596 6.875 196C6.875 300.451 91.5491 385.125 196 385.125C236.361 385.125 273.769 372.482 304.479 350.94C304.445 349.85 304.411 348.881 304.379 348.058C303.913 335.95 305.995 327.066 305.995 327.066C305.995 327.066 287.556 334.683 281.084 333.031C274.612 331.378 267.865 318.328 266.342 317.702C264.82 317.076 254.612 318.241 249.377 317.488C244.142 316.736 237.804 311.255 232.275 310.942C226.745 310.629 216.053 313.1 204.861 311.766C193.669 310.432 187.73 308.803 181.742 302.642C175.754 296.48 176.387 292.486 173.133 288.111C169.879 283.735 119.839 252.287 110.111 222.503C100.384 192.719 109.529 183.306 108.762 172.226Z" fill="#5A5A5A" fill-opacity="0.7"/>
<path fill-rule="evenodd" clip-rule="evenodd" d="M358.774 287.89C343.222 290.107 332.314 295.304 326.75 298.375C324.179 299.793 322.225 301.65 319.997 303.767C317.403 306.232 314.439 309.049 309.701 311.934C300.893 317.297 286.786 322.526 284.291 319.508C282.891 317.814 286.523 314.012 289.832 310.548C292.418 307.84 294.806 305.339 294.438 304.215C293.601 301.652 261.539 278.067 258.775 278.372C256.01 278.677 247.729 282.416 246.548 284.564C246.029 285.508 245.675 287.566 245.312 289.682C244.848 292.379 244.368 295.169 243.51 295.871C241.978 297.123 218.819 304.857 212.864 280.64C206.909 256.423 208.678 248.47 225.435 245.768C232.981 244.551 236.849 242.411 240.122 240.6C244.116 238.391 247.224 236.672 255.046 237.72C257.929 238.106 261.781 241.692 265.731 245.368C271.195 250.454 276.846 255.715 280.378 252.921C285.263 249.056 281.824 244.925 278.371 240.776C277.523 239.757 276.675 238.737 275.948 237.72C272.262 232.56 271.641 227.966 272.528 221.505C272.878 218.952 274.219 215.721 275.696 212.16C277.956 206.712 280.536 200.492 280.378 194.752C280.195 188.118 279.293 183.433 278.545 179.543C278.222 177.866 277.928 176.337 277.732 174.863C277.334 171.866 278.493 171.155 279.832 170.335C280.679 169.815 281.599 169.251 282.241 168.035C282.438 167.661 282.414 166.977 282.302 166.085L282.647 155.094C284.745 150.904 287.559 151.684 289.759 152.294C290.299 152.444 290.803 152.583 291.25 152.636C293.514 152.905 300.2 138.047 299.724 135.284C299.562 134.345 297.119 134.963 294.041 135.741C288.057 137.255 279.671 139.375 280.972 131.851C282.084 125.422 284.215 121.745 285.751 119.092C286.938 117.043 287.771 115.605 287.508 113.982C286.903 110.258 271.305 107.071 271.305 107.071C271.305 107.071 258.105 95.1128 253.353 94.9527C248.6 94.7926 243.671 102.267 243.671 102.267C243.671 102.267 231.752 93.4877 227.283 93.1065C222.814 92.7252 218.622 95.5602 218.522 98.101C218.475 99.2949 221.456 104.225 224.822 109.793C228.621 116.074 232.909 123.166 233.89 126.615C235.267 131.461 187.438 120.781 185.648 115.581C184.794 113.098 188.206 107.061 191.662 100.944C195.444 94.252 199.279 87.4653 197.64 85.1348C194.501 80.674 180.164 78.6166 167.846 80.4019C161.933 81.259 156.84 84.0849 151.751 86.9091C146.24 89.9674 140.732 93.0236 134.19 93.5751C118.606 94.8887 96.6759 89.1719 78.0571 84.3182C65.6553 81.0852 54.7225 78.2352 48.1123 78.1008C70.0283 50.6465 99.4294 29.4302 133.225 17.5424C133.225 17.5424 136.953 41.5171 196 41.5171C255.046 41.5171 258.775 17.5424 258.775 17.5424C332.37 43.4297 385.125 113.554 385.125 196C385.125 229.289 376.524 260.57 361.423 287.741C360.392 287.738 359.504 287.786 358.774 287.89Z" fill="#5A5A5A" fill-opacity="0.7"/>
<path d="M258.775 17.5424C239.132 10.6331 218.005 6.875 196 6.875C173.995 6.875 152.868 10.6331 133.225 17.5424C133.225 17.5424 136.953 41.5171 196 41.5171C255.046 41.5171 258.775 17.5424 258.775 17.5424Z" fill="white" fill-opacity="0.7"/>
<path d="M282.241 168.035C282.438 167.661 282.414 166.977 282.302 166.085M282.241 168.035L282.302 166.085M282.241 168.035C281.599 169.251 280.679 169.815 279.832 170.335C278.493 171.155 277.334 171.866 277.732 174.863C277.928 176.337 278.222 177.866 278.545 179.543C279.293 183.433 280.195 188.118 280.378 194.752C280.536 200.492 277.956 206.712 275.696 212.16C274.219 215.721 272.878 218.952 272.528 221.505C271.641 227.966 272.262 232.56 275.948 237.72C276.675 238.737 277.523 239.757 278.371 240.776C281.824 244.925 285.263 249.056 280.378 252.921C276.846 255.715 271.195 250.454 265.731 245.368C261.781 241.692 257.929 238.106 255.046 237.72C247.224 236.672 244.116 238.391 240.122 240.6C236.849 242.411 232.981 244.551 225.435 245.768C208.678 248.47 206.909 256.423 212.864 280.64C218.819 304.857 241.978 297.123 243.51 295.871C244.368 295.169 244.848 292.379 245.312 289.682C245.675 287.566 246.029 285.508 246.548 284.564C247.729 282.416 256.01 278.677 258.775 278.372C261.539 278.067 293.601 301.652 294.438 304.215C294.806 305.339 292.418 307.84 289.832 310.548C286.523 314.012 282.891 317.814 284.291 319.508C286.786 322.526 300.893 317.297 309.701 311.934C314.439 309.049 317.403 306.232 319.997 303.767C322.225 301.65 324.179 299.793 326.75 298.375C332.314 295.304 343.222 290.107 358.774 287.89C359.504 287.786 360.392 287.738 361.423 287.741M282.302 166.085C281.962 163.376 280.816 158.752 282.647 155.094M282.302 166.085L282.647 155.094M282.647 155.094C284.745 150.904 287.559 151.684 289.759 152.294C290.299 152.444 290.803 152.583 291.25 152.636C293.514 152.905 300.2 138.047 299.724 135.284C299.562 134.345 297.119 134.963 294.041 135.741C288.057 137.255 279.671 139.375 280.972 131.851C282.084 125.422 284.215 121.745 285.751 119.092C286.938 117.043 287.771 115.605 287.508 113.982C286.903 110.258 271.305 107.071 271.305 107.071C271.305 107.071 258.105 95.1128 253.353 94.9527C248.6 94.7926 243.671 102.267 243.671 102.267C243.671 102.267 231.752 93.4877 227.283 93.1065C222.814 92.7252 218.622 95.5602 218.522 98.101C218.475 99.2949 221.456 104.225 224.822 109.793C228.621 116.074 232.909 123.166 233.89 126.615C235.267 131.461 187.438 120.781 185.648 115.581C184.794 113.098 188.206 107.061 191.662 100.944C195.444 94.252 199.279 87.4653 197.64 85.1348C194.501 80.674 180.164 78.6166 167.846 80.4019C161.933 81.259 156.84 84.0849 151.751 86.9091C146.24 89.9674 140.732 93.0236 134.19 93.5751C118.606 94.8887 96.6759 89.1719 78.0571 84.3182C65.6553 81.0852 54.7225 78.2352 48.1123 78.1008M30.7332 103.978C15.5353 131.214 6.875 162.596 6.875 196C6.875 300.451 91.5491 385.125 196 385.125C236.361 385.125 273.769 372.482 304.479 350.94M30.7332 103.978C38.6016 108.973 58.0883 102.862 49.045 114.168C49.045 114.168 58.7509 111.173 71.4678 111.185C84.1847 111.196 107.996 161.146 108.762 172.226C109.529 183.306 100.384 192.719 110.111 222.503C119.839 252.287 169.879 283.735 173.133 288.111C176.387 292.486 175.754 296.48 181.742 302.642C187.73 308.803 193.669 310.432 204.861 311.766C216.053 313.1 226.745 310.629 232.275 310.942C237.804 311.255 244.142 316.736 249.377 317.488C254.612 318.241 264.82 317.076 266.342 317.702C267.865 318.328 274.612 331.378 281.084 333.031C287.556 334.683 305.995 327.066 305.995 327.066C305.995 327.066 303.913 335.95 304.379 348.058C304.411 348.881 304.445 349.85 304.479 350.94M30.7332 103.978C35.8203 94.8611 41.6399 86.2089 48.1123 78.1008M48.1123 78.1008C70.0283 50.6465 99.4294 29.4302 133.225 17.5424M361.423 287.741C376.524 260.57 385.125 229.289 385.125 196C385.125 113.554 332.37 43.4297 258.775 17.5424M361.423 287.741C347.451 312.88 327.915 334.501 304.479 350.94M258.775 17.5424C239.132 10.6331 218.005 6.875 196 6.875C173.995 6.875 152.868 10.6331 133.225 17.5424M258.775 17.5424C258.775 17.5424 255.046 41.5171 196 41.5171C136.953 41.5171 133.225 17.5424 133.225 17.5424" stroke="#1F1F1F" stroke-width="12"/>
</svg>
