<svg width="475" height="171" viewBox="0 0 475 171" fill="none" xmlns="http://www.w3.org/2000/svg">
<path d="M30.1862 149.591C16.7637 152.003 3.63994 156.793 3.49135 157.429C3.34276 158.066 35.8618 161.662 36.0927 163.015C36.3237 164.368 28.5407 165.164 28.671 165.866C28.8013 166.567 38.1238 167.165 42.2203 167.243C46.3168 167.32 110.771 164.934 126.967 163.486C143.163 162.038 195.858 152.516 202.724 150.491C274.801 140.743 348.326 134.398 419.505 119.068C431.316 116.525 456.692 106.501 456.692 106.501C456.692 106.501 471.16 100.519 471.34 94.0048C471.52 87.4903 463.215 84.5659 463.215 84.5659C463.215 84.5659 372.851 92.9968 367.499 96.4398L369.393 115.372C369.393 115.372 162.849 145.715 119.344 148.631C75.8383 151.547 30.1862 149.591 30.1862 149.591Z" fill="#595959" fill-opacity="0.7"/>
<path d="M26.8782 133.848C24.9515 148.557 40.2257 148.038 40.2257 148.038L42.2103 147.898C45.2797 147.506 48.764 147.074 52.5477 146.615L55.1537 124.487L45.3039 118.525C43.1249 118.293 40.7719 117.945 38.5344 117.423C34.6167 119.266 28.1973 123.777 26.8782 133.848Z" fill="#595959" fill-opacity="0.7"/>
<path d="M130.018 137.333C130.018 137.333 145.207 129.166 169.359 127.675C193.511 126.185 207.436 131.041 207.436 131.041L292.525 123.184L369.393 115.372L367.499 96.4398C372.851 92.9968 463.215 84.5659 463.215 84.5659L419.505 71.3918C419.505 71.3918 366.652 80.2906 350.728 77.7083C334.804 75.1259 331.888 53.7293 331.888 53.7293C285.277 60.2341 172.88 78.5597 124.667 86.4758L115.318 87.9235C115.318 87.9235 109.976 90.4311 107.824 97.373C105.672 104.315 109.098 114.968 109.098 114.968L55.6163 120.559L55.1537 124.487L52.5477 146.615C86.1284 142.54 130.018 137.333 130.018 137.333Z" fill="#595959" fill-opacity="0.7"/>
<path d="M130.018 137.333C130.018 137.333 145.207 129.166 169.359 127.675C193.511 126.185 207.436 131.041 207.436 131.041L292.525 123.184L369.393 115.372L367.499 96.4398C372.851 92.9968 463.215 84.5659 463.215 84.5659L419.505 71.3918C419.505 71.3918 366.652 80.2906 350.728 77.7083C334.804 75.1259 331.888 53.7293 331.888 53.7293C285.277 60.2341 172.88 78.5597 124.667 86.4758L115.318 87.9235C115.318 87.9235 109.976 90.4311 107.824 97.373C105.672 104.315 109.098 114.968 109.098 114.968L55.6163 120.559L55.1537 124.487L52.5477 146.615C86.1284 142.54 130.018 137.333 130.018 137.333Z" fill="white" fill-opacity="0.7"/>
<path d="M46.9288 91.4308C46.9288 91.4308 27.6961 101.518 28.4354 110.26C28.7573 114.067 33.3342 116.212 38.5344 117.423C40.7719 117.945 43.1249 118.293 45.3039 118.525C49.6929 118.995 53.3763 118.996 53.9899 119.003C55.6163 119.02 55.6163 120.559 55.6163 120.559L109.098 114.968C109.098 114.968 105.672 104.315 107.824 97.373C109.976 90.4311 115.318 87.9235 115.318 87.9235C115.318 87.9235 114.151 84.0273 100.7 80.7273C90.8866 78.3194 71.3751 80.3259 60.3451 81.9526C56.258 82.5554 53.3355 83.106 52.5023 83.3607C49.4208 84.3025 46.9288 91.4308 46.9288 91.4308Z" fill="white" fill-opacity="0.7"/>
<path d="M169.359 127.675C145.207 129.166 130.018 137.333 130.018 137.333C130.018 137.333 86.1284 142.54 52.5477 146.615C48.764 147.074 45.2797 147.506 42.2103 147.898C36.5486 148.622 32.2989 149.211 30.1862 149.591C30.1862 149.591 75.8383 151.547 119.344 148.631C162.849 145.715 369.393 115.372 369.393 115.372L292.525 123.184L207.436 131.041C207.436 131.041 193.511 126.185 169.359 127.675Z" fill="white" fill-opacity="0.7"/>
<path d="M13.2422 9.50529C13.2422 9.50529 47.3226 74.9445 49.3822 76.6078C51.4418 78.2712 60.1688 81.0304 60.1688 81.0304L60.3451 81.9526C71.3751 80.3259 90.8866 78.3194 100.7 80.7273C114.151 84.0273 115.318 87.9235 115.318 87.9235L124.667 86.4758C123.386 82.6764 121.081 76.3652 119.273 74.3019C116.624 71.2788 45.5958 5.0824 37.5114 4.08606C29.427 3.08971 13.2422 9.50529 13.2422 9.50529Z" fill="white" fill-opacity="0.7"/>
<path d="M419.505 71.3918C419.505 71.3918 386.547 51.3622 372.316 50.1324C358.085 48.9025 341.693 52.361 331.888 53.7293C331.888 53.7293 334.804 75.1259 350.728 77.7083C366.652 80.2906 419.505 71.3918 419.505 71.3918Z" fill="white" fill-opacity="0.7"/>
<path d="M30.1862 149.591C16.7637 152.003 3.63994 156.793 3.49135 157.429C3.34276 158.066 35.8618 161.662 36.0927 163.015C36.3237 164.368 28.5407 165.164 28.671 165.866C28.8013 166.567 38.1238 167.165 42.2203 167.243C46.3168 167.32 110.771 164.934 126.967 163.486C143.163 162.038 195.858 152.516 202.724 150.491C274.801 140.743 348.326 134.398 419.505 119.068C431.316 116.525 456.692 106.501 456.692 106.501C456.692 106.501 471.16 100.519 471.34 94.0048C471.52 87.4903 463.215 84.5659 463.215 84.5659M30.1862 149.591C30.1862 149.591 75.8383 151.547 119.344 148.631C162.849 145.715 369.393 115.372 369.393 115.372M30.1862 149.591C32.2989 149.211 36.5486 148.622 42.2103 147.898M419.505 71.3918C419.505 71.3918 386.547 51.3622 372.316 50.1324C358.085 48.9025 341.693 52.361 331.888 53.7293M419.505 71.3918L463.215 84.5659M419.505 71.3918C419.505 71.3918 366.652 80.2906 350.728 77.7083C334.804 75.1259 331.888 53.7293 331.888 53.7293M463.215 84.5659C463.215 84.5659 372.851 92.9968 367.499 96.4398L369.393 115.372M331.888 53.7293C285.277 60.2341 172.88 78.5597 124.667 86.4758M52.5477 146.615C86.1284 142.54 130.018 137.333 130.018 137.333C130.018 137.333 145.207 129.166 169.359 127.675C193.511 126.185 207.436 131.041 207.436 131.041L292.525 123.184L369.393 115.372M52.5477 146.615L55.1537 124.487M52.5477 146.615C48.764 147.074 45.2797 147.506 42.2103 147.898M124.667 86.4758C123.386 82.6764 121.081 76.3653 119.273 74.3019C116.624 71.2788 45.5958 5.0824 37.5114 4.08606C29.427 3.08971 13.2422 9.50529 13.2422 9.50529C13.2422 9.50529 47.3226 74.9445 49.3822 76.6078C51.4418 78.2712 60.1688 81.0304 60.1688 81.0304L60.3451 81.9526M124.667 86.4758L115.318 87.9235M115.318 87.9235C115.318 87.9235 114.151 84.0273 100.7 80.7273C90.8866 78.3194 71.3751 80.3259 60.3451 81.9526M115.318 87.9235C115.318 87.9235 109.976 90.4311 107.824 97.373C105.672 104.315 109.098 114.968 109.098 114.968L55.6163 120.559M55.6163 120.559C55.6163 120.559 55.6163 119.02 53.9899 119.003C53.3763 118.996 49.6929 118.995 45.3039 118.525M55.6163 120.559L55.1537 124.487M60.3451 81.9526C56.258 82.5554 53.3355 83.106 52.5023 83.3607C49.4208 84.3025 46.9288 91.4308 46.9288 91.4308C46.9288 91.4308 27.6961 101.518 28.4354 110.26C28.7573 114.067 33.3342 116.212 38.5344 117.423M38.5344 117.423C34.6167 119.266 28.1973 123.777 26.8782 133.848C24.9515 148.557 40.2257 148.038 40.2257 148.038L42.2103 147.898M38.5344 117.423C40.7719 117.945 43.1249 118.293 45.3039 118.525M45.3039 118.525L55.1537 124.487" stroke="#1F1F1F" stroke-width="6"/>
</svg>
