<svg width="500" height="500" viewBox="0 0 500 500" fill="none" xmlns="http://www.w3.org/2000/svg">
<path d="M45.2588 367.536C31.8362 372.197 18.7125 381.452 18.5639 382.682C18.4154 383.911 50.9344 390.861 51.1653 393.475C51.3963 396.089 43.6133 397.627 43.7436 398.982C43.8739 400.337 53.1964 401.493 57.2929 401.643C61.3894 401.793 125.844 397.183 142.04 394.385C158.236 391.587 210.931 373.189 217.797 369.275C289.874 350.44 363.398 338.181 434.578 308.561C446.388 303.646 471.765 284.278 471.765 284.278C471.765 284.278 486.232 272.72 486.412 260.133C486.593 247.546 479.228 242.445 478.288 241.895C478.288 241.895 387.924 258.185 382.572 264.838C382.572 264.838 391.125 298.674 384.465 301.419C377.806 304.165 177.922 360.048 134.416 365.682C90.9109 371.316 45.2588 367.536 45.2588 367.536Z" fill="#595959" fill-opacity="0.7"/>
<path d="M41.9508 337.117C40.0241 365.539 55.2983 364.535 55.2983 364.535L57.2829 364.265C60.3523 363.507 63.8366 362.673 67.6203 361.786L70.2263 319.031L60.3765 307.512C58.1975 307.062 55.8445 306.389 53.607 305.382C49.6893 308.943 43.2699 317.658 41.9508 337.117Z" fill="#595959" fill-opacity="0.7"/>
<path d="M62.0014 255.159C62.0014 255.159 42.7687 274.65 43.508 291.542C43.8299 298.896 48.4068 303.042 53.607 305.382C55.8445 306.389 58.1975 307.062 60.3765 307.512C64.7655 308.418 68.4489 308.421 69.0625 308.434C70.6889 308.468 70.6889 311.441 70.6889 311.441L124.171 300.638C124.171 300.638 120.745 280.054 122.897 266.641C125.049 253.228 130.39 248.382 130.39 248.382C130.39 248.382 129.223 240.854 115.773 234.478C105.959 229.825 86.4477 233.702 75.4177 236.845C71.3306 238.01 68.4081 239.074 67.5749 239.566C64.4934 241.386 62.0014 255.159 62.0014 255.159Z" fill="white" fill-opacity="0.7"/>
<path d="M434.578 216.44C434.578 216.44 401.62 177.739 387.389 175.362C373.158 172.986 356.766 179.669 346.961 182.312C346.961 182.312 349.876 223.655 365.801 228.645C381.725 233.634 434.578 216.44 434.578 216.44Z" fill="white" fill-opacity="0.7"/>
<path d="M13.5845 118.29C13.5845 118.29 62.3952 223.305 64.4548 226.518C66.5144 229.732 75.2414 235.064 75.2414 235.064L75.4177 236.845C86.4477 233.702 105.959 229.825 115.773 234.478C129.223 240.854 130.39 248.382 130.39 248.382L139.74 245.585C146.723 243.37 155.052 240.733 164.332 237.804C167.943 236.665 171.697 235.481 175.572 234.262L174.393 205.02C171.744 199.178 60.6684 100.399 52.5841 98.4737C44.4997 96.5486 13.5845 118.29 13.5845 118.29Z" fill="white" fill-opacity="0.7"/>
<path d="M145.757 337.117C145.757 337.117 163.27 316.512 194.286 316.512H252.585C258.396 316.512 293.018 316.321 307.185 314.927C321.353 313.532 384.465 301.419 384.465 301.419C391.125 298.674 382.572 264.838 382.572 264.838C387.924 258.185 478.288 241.895 478.288 241.895L434.578 216.44C434.578 216.44 381.725 233.634 365.801 228.645C349.876 223.655 346.961 182.312 346.961 182.312L175.572 234.262C171.697 235.481 167.943 236.665 164.332 237.804C155.052 240.733 146.723 243.37 139.74 245.585L130.39 248.382C130.39 248.382 125.049 253.228 122.897 266.641C120.745 280.054 124.171 300.638 124.171 300.638L70.6889 311.441L70.2263 319.031L67.6203 361.786C101.201 353.912 145.757 337.117 145.757 337.117Z" fill="white" fill-opacity="0.7"/>
<path d="M194.286 316.512C163.27 316.512 145.757 337.117 145.757 337.117C145.757 337.117 101.201 353.912 67.6203 361.786C63.8366 362.673 60.3523 363.507 57.2829 364.265C51.6212 365.664 47.3715 366.802 45.2588 367.536C45.2588 367.536 90.9109 371.316 134.416 365.682C177.922 360.048 377.806 304.165 384.465 301.419C384.465 301.419 321.353 313.532 307.185 314.927C293.018 316.321 258.396 316.512 252.585 316.512H194.286Z" fill="white" fill-opacity="0.7"/>
<path d="M45.2588 367.536C31.8362 372.197 18.7125 381.452 18.5639 382.682C18.4154 383.911 50.9344 390.861 51.1653 393.475C51.3963 396.089 43.6133 397.627 43.7436 398.982C43.8739 400.337 53.1964 401.493 57.2929 401.643C61.3894 401.793 125.844 397.183 142.04 394.385C158.236 391.587 210.931 373.189 217.797 369.275C289.874 350.44 363.398 338.181 434.578 308.561C446.388 303.646 471.765 284.278 471.765 284.278C471.765 284.278 486.232 272.72 486.412 260.133C486.593 247.546 479.228 242.445 478.288 241.895M45.2588 367.536C45.2588 367.536 90.9109 371.316 134.416 365.682C177.922 360.048 377.806 304.165 384.465 301.419M45.2588 367.536C47.3715 366.802 51.6212 365.664 57.2829 364.265M194.286 316.512C163.27 316.512 145.757 337.117 145.757 337.117C145.757 337.117 101.201 353.912 67.6203 361.786M194.286 316.512C225.301 316.512 246.773 316.512 252.585 316.512M194.286 316.512H252.585M252.585 316.512C258.396 316.512 293.018 316.321 307.185 314.927C321.353 313.532 384.465 301.419 384.465 301.419M434.578 216.44C434.578 216.44 401.62 177.739 387.389 175.362C373.158 172.986 356.766 179.669 346.961 182.312M434.578 216.44L478.288 241.895M434.578 216.44C434.578 216.44 381.725 233.634 365.801 228.645C349.876 223.655 346.961 182.312 346.961 182.312M478.288 241.895C478.288 241.895 387.924 258.185 382.572 264.838C382.572 264.838 391.125 298.674 384.465 301.419M346.961 182.312L175.572 234.262M67.6203 361.786L70.2263 319.031M67.6203 361.786C63.8366 362.673 60.3523 363.507 57.2829 364.265M130.39 248.382C130.39 248.382 129.223 240.854 115.773 234.478C105.959 229.825 86.4477 233.702 75.4177 236.845M130.39 248.382L139.74 245.585C146.723 243.37 155.052 240.733 164.332 237.804C167.943 236.665 171.697 235.481 175.572 234.262M130.39 248.382C130.39 248.382 125.049 253.228 122.897 266.641C120.745 280.054 124.171 300.638 124.171 300.638L70.6889 311.441M70.6889 311.441C70.6889 311.441 70.6889 308.468 69.0625 308.434C68.4489 308.421 64.7655 308.418 60.3765 307.512M70.6889 311.441L70.2263 319.031M75.4177 236.845C71.3306 238.01 68.4081 239.074 67.5749 239.566C64.4934 241.386 62.0014 255.159 62.0014 255.159C62.0014 255.159 42.7687 274.65 43.508 291.542C43.8299 298.896 48.4068 303.042 53.607 305.382M75.4177 236.845L75.2414 235.064C75.2414 235.064 66.5144 229.732 64.4548 226.518C62.3952 223.305 13.5845 118.29 13.5845 118.29C13.5845 118.29 44.4997 96.5486 52.5841 98.4737C60.6684 100.399 171.744 199.178 174.393 205.02L175.572 234.262M53.607 305.382C49.6893 308.943 43.2699 317.658 41.9508 337.117C40.0241 365.539 55.2983 364.535 55.2983 364.535L57.2829 364.265M53.607 305.382C55.8445 306.389 58.1975 307.062 60.3765 307.512M60.3765 307.512L70.2263 319.031" stroke="#1F1F1F" stroke-width="12"/>
</svg>
