<svg width="497" height="193" viewBox="0 0 497 193" fill="none" xmlns="http://www.w3.org/2000/svg">
<path fill-rule="evenodd" clip-rule="evenodd" d="M17.1467 24.2007C18.9144 23.28 21.2242 22.0771 24.2421 20.5053C23.702 19.1428 23.2609 18.0299 22.9007 17.1209L24.2422 20.5053C23.6127 18.9173 23.0574 17.5164 22.5676 16.2804C21.2947 13.0683 21.2953 13.0681 21.296 13.0678L21.2982 13.0669L21.3037 13.0647L21.3192 13.0586L21.3677 13.0396C21.4077 13.0239 21.463 13.0023 21.5329 12.9752C21.6727 12.9209 21.8709 12.8447 22.1216 12.7498C22.6225 12.5602 23.3352 12.2954 24.2113 11.9831C25.9567 11.3609 28.3841 10.5383 31.0989 9.74411C33.7957 8.95516 36.8874 8.1613 39.9388 7.6309C42.873 7.12087 46.3093 6.75438 49.49 7.14637C51.6964 7.41829 53.6527 8.47206 54.6412 9.02556C55.9412 9.75341 57.3683 10.6885 58.8354 11.719C61.7881 13.793 65.4077 16.6119 69.3817 19.8537C77.3564 26.3592 87.1791 34.914 96.7585 43.4665C106.353 52.033 115.772 60.6579 122.961 67.3334C126.555 70.6708 129.602 73.5303 131.841 75.6585C133.886 77.6009 135.65 79.3 136.29 80.0302C138.184 82.1921 139.65 85.4947 140.552 87.6619C140.67 87.9432 140.786 88.2264 140.9 88.5106C192.05 80.1241 297.052 63.0486 341.783 56.8063C343.414 56.5787 345.344 56.268 347.505 55.9202C357.16 54.3661 371.405 52.0734 384.005 53.1623C388.81 53.5775 394.458 55.4483 399.682 57.5527C405.09 59.731 410.785 62.4713 415.911 65.1118C421.055 67.7617 425.727 70.3644 429.109 72.3012C430.803 73.2711 432.179 74.078 433.137 74.6453C433.373 74.785 433.584 74.9103 433.768 75.02L476.524 87.9065L476.699 87.9594L476.872 88.0203L479.031 81.8891L478.718 81.7787L478.4 81.6827L436.404 69.0255C435.425 68.4459 434.038 67.633 432.339 66.6605C428.901 64.6914 424.141 62.0395 418.888 59.3332C413.668 56.644 407.776 53.8053 402.111 51.5232C396.779 49.3753 390.382 47.189 384.565 46.6862C371.047 45.518 355.687 48.0043 346.119 49.5532L346.118 49.5533C344.089 49.8818 342.32 50.1682 340.884 50.3685C297.461 56.4283 197.475 72.6573 144.788 81.2865C143.854 79.4522 142.646 77.4213 141.179 75.7464C140.288 74.73 138.227 72.7595 136.319 70.9463C134.056 68.7962 130.99 65.919 127.384 62.57C120.17 55.8712 110.719 47.2171 101.087 38.6176C91.4837 30.0432 81.5769 21.4135 73.4904 14.8168C69.4714 11.5382 65.7124 8.60601 62.5715 6.39983C61.0178 5.30845 59.3889 4.23407 57.8168 3.35385L57.8002 3.34452C56.7771 2.77164 53.854 1.13479 50.285 0.694936C46.1623 0.18683 41.9874 0.6771 38.8256 1.22668C35.4515 1.81317 32.1075 2.67637 29.2739 3.50535C26.4076 4.34389 23.857 5.20856 22.0288 5.86021C21.1087 6.18822 20.3563 6.46771 19.8207 6.67043C19.5525 6.77192 19.3377 6.85455 19.1823 6.91483C19.1046 6.94499 19.0416 6.96958 18.9941 6.98819L18.9347 7.01158L18.9138 7.01981L18.9056 7.02305L18.9021 7.02444C18.9007 7.025 18.8993 7.02554 22.5676 16.2804C22.6701 16.5392 22.7809 16.8188 22.9007 17.1209L18.899 7.02569L3.95798 12.9482L11.3818 27.2029L17.1467 24.2006L17.1467 24.2007ZM24.2422 20.5055L17.1468 24.2008L17.1467 24.2007C11.3819 27.2031 11.382 27.2034 11.3823 27.2039L11.3835 27.2063L11.3884 27.2156L11.4072 27.2518L11.4811 27.3937L11.7682 27.9444C12.0195 28.4263 12.3878 29.1324 12.857 30.0312C13.7955 31.8287 15.1379 34.3973 16.755 37.4844C19.9882 43.6568 24.3239 51.9102 28.727 60.2211C33.1237 68.5199 37.6134 76.9249 41.146 83.3813C42.9051 86.5963 44.4728 89.4123 45.6918 91.5163C45.8783 91.8382 46.0636 92.1554 46.246 92.4643C44.3289 93.6613 41.9747 95.2264 39.5838 97.059C36.7694 99.2162 33.3584 102.155 30.5863 105.704C28.0591 108.939 24.3431 114.868 24.987 122.482C25.2476 125.564 26.1676 128.186 27.4214 130.39C25.567 133.887 24.1454 138.044 23.501 142.964C23.194 145.308 23.1253 147.631 23.3228 149.9C21.5913 150.392 19.965 150.883 18.4775 151.355C15.7683 152.214 13.3675 153.057 11.5173 153.787C10.6328 154.136 9.63911 154.55 8.72574 155C8.31877 155.201 7.54961 155.591 6.70952 156.142C6.31737 156.4 5.50582 156.953 4.61633 157.788L4.5783 157.824C4.08198 158.286 1.38315 160.799 0.371244 165.132C-1.59623 173.558 4.17432 178.709 5.12013 179.512C6.71046 180.863 8.22112 181.542 8.66369 181.74C9.79594 182.245 10.7804 182.509 11.0746 182.587L11.0787 182.588C11.8855 182.805 12.6902 182.96 13.2034 183.055C14.3564 183.268 15.838 183.498 17.3712 183.725C19.4106 184.026 21.941 184.378 24.5619 184.743L24.568 184.744L24.5963 184.748C25.656 184.896 26.7301 185.045 27.7922 185.195C28.3715 186.025 28.9533 186.678 29.429 187.156C30.7228 188.457 31.9861 189.238 32.6997 189.639C34.1173 190.435 35.3794 190.836 35.9092 190.997C37.1192 191.365 38.2656 191.568 38.9337 191.677C40.4327 191.921 42.1666 192.101 43.7107 192.234C46.8721 192.507 50.552 192.695 52.9458 192.74C57.675 192.83 122.665 190.412 139.258 188.929C148.071 188.141 165.902 185.283 181.848 182.487C196.256 179.962 210.901 177.18 216.576 175.737C235.928 173.128 255.554 170.746 275.318 168.346L275.32 168.346L275.32 168.346C327.924 161.959 381.512 155.452 433.558 144.243C440.555 142.737 450.727 139.259 458.452 136.469C462.468 135.019 466.096 133.654 468.718 132.652C470.031 132.15 471.097 131.738 471.838 131.449C472.209 131.305 472.5 131.191 472.7 131.113L472.931 131.022L472.993 130.997L473.011 130.99L473.016 130.988L473.018 130.987C473.019 130.987 473.019 130.987 470.481 124.56C469.77 122.76 468.86 120.456 467.695 117.506L468.83 120.251C468.948 120.536 469.058 120.804 469.162 121.055C473.233 130.901 473.236 130.9 473.238 130.899L473.243 130.896L473.255 130.891L473.284 130.88L473.356 130.849C473.412 130.826 473.481 130.797 473.564 130.761C473.641 130.728 473.731 130.689 473.832 130.645C473.945 130.596 474.072 130.54 474.212 130.478C474.74 130.243 475.459 129.913 476.31 129.498C477.978 128.685 480.301 127.472 482.718 125.938C485.035 124.468 488 122.352 490.564 119.612C492.888 117.128 496.645 112.26 496.834 105.406C497.116 95.2324 490.649 88.9545 487.064 86.2564C485.084 84.7664 483.187 83.7321 481.834 83.0762C481.137 82.7385 480.531 82.4755 480.059 82.2825C479.821 82.1854 479.614 82.1046 479.442 82.0395C479.356 82.0069 479.278 81.9781 479.21 81.9531L479.157 81.9338L479.114 81.9183L479.071 81.903L479.051 81.8959L479.041 81.8924C479.037 81.8909 479.032 81.8893 475.215 92.7271L474.215 95.5659C476.872 88.0203 476.875 88.0212 476.878 88.0222L476.883 88.0241L476.895 88.0282L476.921 88.0374L476.982 88.0595C477.026 88.0758 477.08 88.0956 477.141 88.1187C477.263 88.165 477.417 88.2251 477.599 88.2994C477.961 88.4474 478.441 88.6551 478.999 88.9257C480.093 89.4562 481.603 90.2819 483.155 91.4504C486.054 93.6317 490.532 98.1532 490.337 105.226C490.212 109.738 487.719 113.139 485.817 115.171C483.783 117.345 481.329 119.122 479.235 120.451C477.086 121.815 474.991 122.91 473.461 123.656C472.688 124.033 472.037 124.331 471.568 124.54C471.334 124.644 471.143 124.727 471.005 124.786C470.935 124.816 470.879 124.84 470.836 124.858L470.782 124.881L470.763 124.889L470.755 124.892L470.752 124.893C470.751 124.893 470.75 124.894 469.162 121.055C468.722 119.99 468.233 118.809 467.692 117.501C470.632 124.942 470.631 124.942 470.631 124.942L470.629 124.943L470.625 124.944L470.609 124.951L470.55 124.974L470.326 125.062C470.193 125.114 470.018 125.182 469.805 125.266L469.481 125.392C468.75 125.676 467.697 126.084 466.398 126.58C463.802 127.572 460.213 128.923 456.245 130.356C448.477 133.161 438.697 136.488 432.189 137.889C380.455 149.031 327.323 155.482 274.823 161.856L274.818 161.857C254.861 164.28 234.996 166.692 215.333 169.347C210.515 170.625 195.787 173.445 180.726 176.085C164.73 178.889 147.172 181.696 138.68 182.455C122.264 183.922 57.5144 186.326 53.0688 186.242C50.8299 186.199 47.2958 186.02 44.27 185.759C42.7773 185.63 41.2354 185.466 39.9797 185.262C39.3967 185.167 38.589 185.018 37.798 184.778C37.444 184.67 36.6988 184.43 35.8824 183.971C35.4716 183.741 34.7611 183.3 34.0376 182.573C33.4325 181.964 32.5274 180.858 32.0273 179.231C31.2059 179.112 30.3717 178.994 29.5327 178.876C28.1716 178.684 26.7941 178.492 25.4483 178.304L25.4232 178.301L25.421 178.301C22.8184 177.938 20.3357 177.592 18.3211 177.295C16.7958 177.07 15.4139 176.854 14.3854 176.664C13.906 176.575 13.3088 176.457 12.7606 176.31C12.5496 176.254 11.9652 176.095 11.3119 175.804C11.0549 175.689 10.212 175.309 9.32855 174.559C8.80073 174.11 5.61441 171.264 6.70097 166.611C7.26188 164.209 8.76085 162.811 9.045 162.547L9.0662 162.527C9.57022 162.053 10.0368 161.734 10.2772 161.576C10.7889 161.24 11.2828 160.987 11.5969 160.832C12.2798 160.496 13.0868 160.155 13.9023 159.834C15.578 159.173 17.8322 158.379 20.4425 157.551C23.4644 156.592 27.076 155.553 30.9651 154.599C29.7608 151.382 29.4299 147.749 29.946 143.809C30.7054 138.01 32.7538 133.522 35.2749 130.08C33.3667 128.126 31.7615 125.454 31.4639 121.935C31.0257 116.754 33.5527 112.466 35.7087 109.706C37.9998 106.773 40.9283 104.218 43.5381 102.218C46.2029 100.176 48.8479 98.4748 50.7986 97.2963C51.0768 97.1282 51.3425 96.9698 51.594 96.8215C51.8535 96.2567 52.1545 95.6378 52.4934 94.999C52.8952 94.2419 53.399 93.364 54.0054 92.4712C53.8091 92.2299 53.6802 92.0489 53.6313 91.9803L53.6161 91.9589C53.3571 91.601 53.1062 91.2191 52.8855 90.8721C52.4355 90.1641 51.9001 89.266 51.316 88.2579C50.1373 86.2236 48.5999 83.4629 46.8483 80.2616C43.3372 73.8444 38.8639 65.4704 34.4707 57.1783C30.074 48.8795 25.7434 40.6358 22.5129 34.4685C20.8973 31.3844 19.5563 28.8184 18.619 27.0231C18.1503 26.1255 17.7825 25.4204 17.5318 24.9395L17.2455 24.3902L17.1719 24.249L17.1532 24.2131L17.1485 24.204L17.1472 24.2016C17.147 24.2011 17.1468 24.2008 24.2422 20.5055ZM473.02 130.987L470.632 124.942L470.691 124.918L470.749 124.894L473.233 130.901L473.126 130.945L473.02 130.987ZM42.1061 187.481C42.1449 187.492 42.1659 187.498 42.1664 187.497C42.1667 187.497 42.1622 187.496 42.1527 187.493C42.1428 187.491 42.1273 187.486 42.1061 187.481ZM44.6852 190.287C44.5845 190.317 44.5638 190.32 44.6485 190.297L44.6852 190.287ZM24.2421 20.5053L17.1467 24.2006L13.0509 16.3361L21.2942 13.0685L24.2421 20.5053ZM42.7989 184.066C42.7955 184.067 42.7943 184.068 42.7949 184.068C42.7965 184.068 42.8091 184.064 42.8312 184.056C42.8149 184.061 42.8042 184.065 42.7989 184.066ZM18.6509 175.193C18.6546 175.191 18.6598 175.189 18.6662 175.185L18.6642 175.186C18.6505 175.193 18.6437 175.197 18.6433 175.197C18.6431 175.197 18.6456 175.196 18.6509 175.193Z" fill="#3354A8"/>
</svg>
