<svg width="487" height="316" viewBox="0 0 487 316" fill="none" xmlns="http://www.w3.org/2000/svg">
<path d="M39.7694 275.541C26.3469 280.202 13.2232 289.457 13.0746 290.687C12.926 291.916 45.445 298.866 45.6759 301.48C45.9069 304.094 38.1239 305.632 38.2542 306.987C38.3846 308.342 47.707 309.498 51.8035 309.648C55.9 309.798 120.355 305.187 136.55 302.39C152.746 299.592 205.441 281.194 212.307 277.28C284.384 258.445 357.909 246.185 429.088 216.565C440.899 211.651 466.276 192.282 466.276 192.282C466.276 192.282 480.743 180.725 480.923 168.137C481.103 155.55 473.739 150.45 472.798 149.899C472.798 149.899 382.434 166.19 377.083 172.842C377.083 172.842 385.635 206.678 378.976 209.424C372.316 212.17 172.432 268.053 128.927 273.687C85.4215 279.321 39.7694 275.541 39.7694 275.541Z" fill="#595959" fill-opacity="0.7"/>
<path d="M36.4614 245.122C34.5347 273.544 49.8089 272.539 49.8089 272.539L51.7936 272.27C54.8629 271.512 58.3472 270.678 62.131 269.791L64.737 227.036L54.8871 215.516C52.7081 215.066 50.3552 214.394 48.1176 213.387C44.1999 216.948 37.7805 225.662 36.4614 245.122Z" fill="#595959" fill-opacity="0.7"/>
<path d="M56.512 163.164C56.512 163.164 37.2793 182.655 38.0186 199.547C38.3405 206.901 42.9174 211.047 48.1176 213.387C50.3552 214.394 52.7081 215.066 54.8871 215.516C59.2761 216.423 62.9595 216.426 63.5732 216.439C65.1996 216.473 65.1996 219.446 65.1996 219.446L118.681 208.643C118.681 208.643 115.256 188.059 117.408 174.645C119.56 161.232 124.901 156.387 124.901 156.387C124.901 156.387 123.734 148.859 110.284 142.483C100.47 137.83 80.9583 141.707 69.9283 144.85C65.8412 146.015 62.9187 147.079 62.0855 147.571C59.004 149.391 56.512 163.164 56.512 163.164Z" fill="white" fill-opacity="0.7"/>
<path d="M429.088 124.444C429.088 124.444 396.13 85.7434 381.899 83.3671C367.669 80.9907 351.276 87.6732 341.471 90.3171C341.471 90.3171 344.387 131.66 360.311 136.649C376.235 141.639 429.088 124.444 429.088 124.444Z" fill="white" fill-opacity="0.7"/>
<path d="M8.09509 26.2943C8.09509 26.2943 56.9058 131.309 58.9654 134.523C61.025 137.737 69.7521 143.068 69.7521 143.068L69.9283 144.85C80.9583 141.707 100.47 137.83 110.284 142.483C123.734 148.859 124.901 156.387 124.901 156.387L134.251 153.59C141.233 151.375 149.562 148.737 158.843 145.809C162.453 144.669 166.208 143.486 170.083 142.266L168.904 113.024C166.255 107.183 55.1791 8.4035 47.0947 6.47837C39.0103 4.55323 8.09509 26.2943 8.09509 26.2943Z" fill="white" fill-opacity="0.7"/>
<path d="M140.267 245.122C140.267 245.122 157.781 224.517 188.796 224.517H247.095C252.907 224.517 287.528 224.326 301.696 222.932C315.864 221.537 378.976 209.424 378.976 209.424C385.635 206.678 377.083 172.842 377.083 172.842C382.434 166.19 472.798 149.899 472.798 149.899L429.088 124.444C429.088 124.444 376.235 141.639 360.311 136.649C344.387 131.66 341.471 90.3171 341.471 90.3171L170.083 142.266C166.208 143.486 162.453 144.669 158.843 145.809C149.562 148.737 141.233 151.375 134.251 153.59L124.901 156.387C124.901 156.387 119.56 161.232 117.408 174.645C115.256 188.059 118.681 208.643 118.681 208.643L65.1996 219.446L64.737 227.036L62.131 269.791C95.7116 261.917 140.267 245.122 140.267 245.122Z" fill="white" fill-opacity="0.7"/>
<path d="M188.796 224.517C157.781 224.517 140.267 245.122 140.267 245.122C140.267 245.122 95.7116 261.917 62.131 269.791C58.3472 270.678 54.8629 271.512 51.7936 272.27C46.1318 273.668 41.8821 274.807 39.7694 275.541C39.7694 275.541 85.4215 279.321 128.927 273.687C172.432 268.053 372.316 212.17 378.976 209.424C378.976 209.424 315.864 221.537 301.696 222.932C287.528 224.326 252.907 224.517 247.095 224.517H188.796Z" fill="white" fill-opacity="0.7"/>
<path d="M39.7694 275.541C26.3469 280.202 13.2232 289.457 13.0746 290.687C12.926 291.916 45.445 298.866 45.6759 301.48C45.9069 304.094 38.1239 305.632 38.2542 306.987C38.3846 308.342 47.707 309.498 51.8035 309.648C55.9 309.798 120.355 305.187 136.55 302.39C152.746 299.592 205.441 281.194 212.307 277.28C284.384 258.445 357.909 246.185 429.088 216.565C440.899 211.651 466.276 192.282 466.276 192.282C466.276 192.282 480.743 180.725 480.923 168.137C481.103 155.55 473.739 150.45 472.798 149.899M39.7694 275.541C39.7694 275.541 85.4215 279.321 128.927 273.687C172.432 268.053 372.316 212.17 378.976 209.424M39.7694 275.541C41.8821 274.807 46.1318 273.668 51.7936 272.27M188.796 224.517C157.781 224.517 140.267 245.122 140.267 245.122C140.267 245.122 95.7116 261.917 62.131 269.791M188.796 224.517C219.812 224.517 241.284 224.517 247.095 224.517M188.796 224.517H247.095M247.095 224.517C252.907 224.517 287.528 224.326 301.696 222.932C315.864 221.537 378.976 209.424 378.976 209.424M429.088 124.444C429.088 124.444 396.13 85.7434 381.899 83.3671C367.669 80.9907 351.276 87.6732 341.471 90.3171M429.088 124.444L472.798 149.899M429.088 124.444C429.088 124.444 376.235 141.639 360.311 136.649C344.387 131.66 341.471 90.3171 341.471 90.3171M472.798 149.899C472.798 149.899 382.434 166.19 377.083 172.842C377.083 172.842 385.635 206.678 378.976 209.424M341.471 90.3171L170.083 142.266M62.131 269.791L64.737 227.036M62.131 269.791C58.3472 270.678 54.8629 271.512 51.7936 272.27M124.901 156.387C124.901 156.387 123.734 148.859 110.284 142.483C100.47 137.83 80.9583 141.707 69.9283 144.85M124.901 156.387L134.251 153.59C141.233 151.375 149.562 148.737 158.843 145.809C162.453 144.669 166.208 143.486 170.083 142.266M124.901 156.387C124.901 156.387 119.56 161.232 117.408 174.645C115.256 188.059 118.681 208.643 118.681 208.643L65.1996 219.446M65.1996 219.446C65.1996 219.446 65.1996 216.473 63.5732 216.439C62.9595 216.426 59.2761 216.423 54.8871 215.516M65.1996 219.446L64.737 227.036M69.9283 144.85C65.8412 146.015 62.9187 147.079 62.0855 147.571C59.004 149.391 56.512 163.164 56.512 163.164C56.512 163.164 37.2793 182.655 38.0186 199.547C38.3405 206.901 42.9174 211.047 48.1176 213.387M69.9283 144.85L69.7521 143.068C69.7521 143.068 61.025 137.737 58.9654 134.523C56.9058 131.309 8.09509 26.2943 8.09509 26.2943C8.09509 26.2943 39.0103 4.55323 47.0947 6.47837C55.1791 8.4035 166.255 107.183 168.904 113.024L170.083 142.266M48.1176 213.387C44.1999 216.948 37.7805 225.662 36.4614 245.122C34.5347 273.544 49.8089 272.539 49.8089 272.539L51.7936 272.27M48.1176 213.387C50.3552 214.394 52.7081 215.066 54.8871 215.516M54.8871 215.516L64.737 227.036" stroke="#1F1F1F" stroke-width="12"/>
</svg>
